PathFileType	4	(X/Y/Z)	c:/Users/goper/Files/vsCode/490R/osim_files/A06/A06_Slow_01.trc
DataRate	CameraRate	NumFrames	NumMarkers	Units                	OrigDataRate	OrigDataStartFrame	OrigNumFrames
120.00	120.00	8	36	mm	120.0	941	1505
                Frame#	Time	LPSIS			LASIS			LTH1			LTH2			LTH3			LTH4			LLFE			LMFE			LSH1			LSH2			LSH3			LSH4			LLMAL			LMMAL			LCAL			LMTP5			LTOE			LMTP1			RPSIS			RASIS			RTH1			RTH2			RTH3			RTH4			RLFE			RMFE			RSH1			RSH2			RSH3			RSH4			RLMAL			RMMAL			RCAL			RMTP1			RTOE			RMTP5		
		X1	Y1	Z1	X2	Y2	Z2	X3	Y3	Z3	X4	Y4	Z4	X5	Y5	Z5	X6	Y6	Z6	X7	Y7	Z7	X8	Y8	Z8	X9	Y9	Z9	X10	Y10	Z10	X11	Y11	Z11	X12	Y12	Z12	X13	Y13	Z13	X14	Y14	Z14	X15	Y15	Z15	X16	Y16	Z16	X17	Y17	Z17	X18	Y18	Z18	X19	Y19	Z19	X20	Y20	Z20	X21	Y21	Z21	X22	Y22	Z22	X23	Y23	Z23	X24	Y24	Z24	X25	Y25	Z25	X26	Y26	Z26	X27	Y27	Z27	X28	Y28	Z28	X29	Y29	Z29	X30	Y30	Z30	X31	Y31	Z31	X32	Y32	Z32	X33	Y33	Z33	X34	Y34	Z34	X35	Y35	Z35	X36	Y36	Z36

941	7.83333	87.83302	1008.68427	384.38834	-104.43704	947.86951	432.66058	-3.19367	591.27142	465.53198	-9.86381	549.59454	461.18182	-66.44594	590.66541	453.52628	-61.13118	548.30194	450.33389	-30.17589	475.36783	442.67572	-31.89720	469.19714	333.90628	33.47564	385.37637	458.02222	29.48527	339.43378	463.38324	-27.98489	382.86874	448.25415	-23.76262	340.72809	451.13541	45.52097	88.44981	413.62082	30.48152	103.34757	329.49512	112.36644	83.17017	365.18344	-70.22101	40.82468	426.81577	-108.86765	60.91191	369.99835	-82.93993	53.87938	331.19250	99.79164	1028.93665	255.03702	-68.92584	1001.83002	183.49518	-47.80230	609.31036	145.02866	-66.03131	570.39734	145.48203	-107.86970	628.22028	152.60846	-117.31863	585.01764	149.69516	-122.04887	469.08380	172.19035	-125.56818	470.95020	262.78986	-69.21267	321.10239	187.86794	-59.91605	274.52533	190.51645	-127.31945	305.47211	198.48941	-110.30727	260.19016	195.26311	-29.33172	139.06259	183.06612	-43.57707	141.00288	267.06686	29.31891	129.25435	232.39653	-165.26839	71.37931	259.51501	-181.39653	79.89310	218.25427	-151.96912	68.81477	171.19688
942	7.84167	81.10513	1008.03705	384.28293	-111.26606	947.52258	432.71466	-7.77620	591.24347	465.45407	-14.05412	549.53625	461.10928	-71.20753	590.31781	452.61472	-65.40358	547.77197	449.97351	-33.41970	475.02573	442.37686	-34.61624	468.76999	333.58838	30.99884	385.45792	457.86694	27.31015	339.54257	463.13708	-30.43595	382.53864	447.94437	-25.94237	340.41711	450.73929	45.34966	88.62887	413.39597	30.38359	103.30279	329.22998	112.32878	83.40187	364.98190	-70.28680	40.86214	426.79138	-108.91212	60.79205	369.89169	-83.00151	53.72106	331.13876	92.90596	1028.18494	254.95668	-75.89616	1001.21729	183.45001	-55.52409	608.64569	144.93759	-73.85789	569.72552	145.35072	-115.19613	628.08984	152.67174	-125.08652	584.34027	149.64813	-129.95177	468.31720	171.90501	-133.63481	469.77249	262.60837	-84.91753	317.79056	187.32443	-78.06450	270.71021	189.89279	-143.63521	305.10553	197.95032	-129.02887	259.01282	194.61395	-54.54877	133.85361	182.32707	-69.65448	136.76788	266.17990	3.24675	121.03770	231.56239	-193.84972	73.31101	258.41284	-209.49057	82.77879	217.16051	-179.64258	69.42475	170.02950
943	7.85000	74.46970	1007.29932	384.24280	-118.15446	947.06274	432.82529	-12.66080	591.08752	465.45810	-18.23601	549.32330	460.98032	-75.74567	589.48480	452.21783	-69.52789	546.98743	449.46500	-36.73737	474.57855	442.14133	-37.33524	468.37424	333.19250	28.46128	385.53601	457.66891	25.06875	339.50119	462.96924	-32.95343	382.00018	447.61874	-28.06668	340.04346	450.47946	45.20412	88.76761	413.19815	30.10718	103.15375	328.95630	112.24619	83.51039	364.89191	-70.30963	40.83880	426.78677	-108.77016	60.45797	369.72046	-83.08180	53.56895	331.09665	86.02123	1027.26611	254.84102	-82.74311	1000.46826	183.35849	-63.20463	607.65912	144.85202	-81.47238	568.82495	145.18753	-122.82446	626.93329	152.67216	-132.71448	583.48413	149.66393	-137.59502	467.33170	171.64111	-141.00685	468.68341	262.41425	-100.47343	314.58902	186.74617	-96.02798	267.37671	189.32768	-159.74593	304.95990	197.43436	-147.57257	258.16663	194.02626	-79.45795	128.94397	180.98991	-93.69228	132.54439	265.54013	-22.59804	113.44146	230.50047	-222.07869	76.08549	257.49362	-237.16350	86.36861	216.20886	-208.57146	72.43723	168.35693
944	7.85833	67.48080	1006.25262	384.09457	-125.08834	946.53992	432.93665	-17.53320	590.87256	465.47217	-22.71574	548.99384	460.95657	-80.53179	588.60950	451.82376	-73.84525	546.08209	449.05695	-40.08274	474.06290	441.95657	-40.08614	467.92703	332.78699	25.82264	385.46457	457.61990	22.73472	339.46103	462.85995	-35.51538	381.53488	447.34949	-30.35222	339.54318	450.18408	45.03535	88.84726	413.06479	29.93523	102.89165	328.56622	112.14308	83.60022	364.82892	-70.35912	40.76555	426.82516	-108.85487	60.19564	369.71017	-82.66892	53.53858	331.02029	79.04172	1026.16833	254.66167	-89.86533	999.61700	183.31392	-70.29562	606.79578	144.68997	-88.99828	567.74634	145.09894	-130.34612	625.85925	152.84305	-140.24147	582.49500	149.71024	-145.07866	466.10370	171.48026	-148.13959	467.33884	262.22626	-115.98177	311.65610	186.12076	-114.00820	264.16495	188.55064	-175.67157	305.01938	196.89365	-166.40884	257.56708	193.41481	-104.62136	125.18551	179.93913	-120.01993	129.04202	265.38983	-48.27987	106.65194	229.28532	-249.51474	79.36612	256.06027	-264.08713	90.73762	215.54950	-236.40977	75.61539	167.39131
945	7.86667	60.74860	1005.28943	383.88571	-131.99603	945.92816	433.04037	-22.35816	590.65985	465.38425	-27.25341	548.59607	460.78970	-85.43243	587.63416	451.34064	-78.18698	545.19635	448.66510	-43.67999	473.43411	441.68823	-42.85350	467.49878	332.38977	23.05491	385.49103	457.53116	20.45325	339.40714	462.76416	-38.18263	380.95609	447.10107	-32.55421	339.00772	449.96616	44.81385	88.90228	412.93057	29.80491	102.88743	328.40408	111.81899	83.61379	364.76370	-70.43188	40.68049	426.87286	-108.91448	59.94713	369.71030	-82.79831	53.36031	331.02505	72.04431	1025.02661	254.44777	-96.88933	998.53351	183.23532	-78.61050	605.41943	144.60945	-96.50013	566.64856	144.91861	-138.05617	624.57916	152.99731	-147.66209	581.28589	149.80095	-152.47324	464.75244	171.32892	-155.28188	465.81531	262.02771	-131.36026	308.94250	185.39117	-131.76947	261.49448	187.66353	-191.17799	305.35150	196.40445	-184.18752	257.48007	193.02510	-129.66014	122.17417	178.78894	-142.85286	126.20732	263.41818	-73.79633	101.01324	227.67082	-276.38513	83.58577	255.06342	-291.15341	96.05235	214.26759	-263.91690	79.50906	166.51006
946	7.87500	53.98303	1004.24164	383.60632	-138.92908	945.23871	433.15118	-27.63858	590.26050	465.37299	-31.90543	548.23773	460.77551	-90.34863	586.62817	450.87024	-82.68938	544.31281	448.28149	-47.18222	472.83398	441.56839	-45.74450	467.02032	332.02606	20.32384	385.44821	457.46820	18.13388	339.34259	462.64096	-40.75643	380.38818	446.88629	-34.94944	338.52573	449.71350	44.66579	88.97408	412.82455	29.62430	102.86817	328.23203	111.73921	83.70452	364.73624	-70.44212	40.60828	426.91000	-108.94132	59.72124	369.69702	-82.69724	53.28639	331.05591	64.94669	1023.81079	254.08652	-104.54763	997.61157	183.31462	-86.15684	604.15271	144.49490	-103.94171	565.33478	144.77051	-145.95885	623.27075	153.25266	-155.17795	579.88586	149.95407	-159.83298	463.27798	171.11189	-162.16177	464.16873	261.82230	-146.68967	306.48630	184.60768	-149.45979	259.16049	186.83151	-206.54036	305.75037	195.81671	-201.81343	257.55270	192.08363	-154.50035	119.97374	177.54555	-167.98961	124.35004	262.42786	-100.21737	95.27837	226.65880	-302.89011	89.17110	254.42349	-316.88925	101.93988	213.77135	-290.76740	84.21806	165.74777
947	7.88333	46.92365	1002.97955	383.22903	-145.30049	944.05670	433.41202	-32.95010	589.89545	465.32935	-36.57773	547.88306	460.67191	-95.40717	585.72791	450.39551	-87.25909	543.37653	447.75513	-50.87854	472.19232	441.34436	-48.62555	466.52631	331.65866	17.46027	385.44012	457.34967	15.72342	339.31744	462.51822	-43.51426	379.85147	446.68277	-37.37076	338.07394	449.51880	44.50501	89.08717	412.72867	29.43400	102.89434	328.08533	111.61577	83.82716	364.65967	-70.58449	40.54377	426.94919	-109.21102	59.50554	369.77814	-82.79108	53.13739	331.02451	57.82095	1022.48743	253.65321	-111.27924	996.28516	183.01263	-93.64285	602.84320	144.27519	-111.45703	563.96545	144.52821	-152.87894	622.02747	153.51888	-162.67938	578.48364	150.05069	-167.15601	461.72455	170.78210	-168.99571	462.37686	261.52258	-161.36664	304.81903	183.81940	-166.63019	257.44952	186.13210	-221.44173	306.80844	195.57504	-219.24117	258.15863	191.48056	-178.73907	118.64375	176.24446	-191.83836	123.34647	261.27988	-125.53452	91.15551	225.25824	-328.18167	94.79932	253.80879	-341.99200	108.50303	213.26704	-316.87036	89.64963	165.05678
948	7.89167	40.07140	1001.80127	382.69931	-152.54836	943.55249	433.25345	-38.15339	589.58112	465.20227	-41.35286	547.53827	460.52316	-100.62476	584.74451	449.88861	-91.99348	542.88306	446.66580	-54.57234	471.66620	441.09750	-51.73903	466.06281	331.32532	14.78773	385.47852	457.22821	13.25357	339.26605	462.41495	-46.25990	379.30109	446.38736	-39.81985	337.71075	449.31464	44.32123	89.20108	412.61218	29.24372	102.90582	327.93747	111.86433	84.28702	364.43823	-70.59505	40.62745	427.01193	-109.23629	59.35966	369.70786	-83.00127	52.86957	330.94922	50.66664	1021.13293	253.10832	-118.66979	994.93164	182.81352	-101.41597	601.43066	144.03978	-119.32790	562.63324	144.21724	-160.35097	620.28674	153.63026	-170.43541	577.14850	150.04430	-175.00464	460.23810	170.37823	-176.33630	460.66949	261.12430	-176.45599	303.22253	182.97031	-184.12245	255.68358	184.78764	-236.15569	308.07397	195.52159	-236.34669	259.28873	190.77895	-202.91251	118.13073	174.61324	-214.88358	123.10190	260.12149	-150.72018	87.39260	222.98712	-352.63748	101.07291	253.26482	-365.74115	115.67140	212.81934	-341.93698	95.65495	164.50061
